# xmcd CD database file
#
# Track frame offsets:
#	150
#	12632
#	24313
#	35758
#	48452
#	60872
#	75453
#	87796
#	101267
#	111739
#	125509
#	140274
#	155611
#	169800
#	183322
#	197040
#	210126
#	221583
#	232521
#	243398
#	253833
#
# Disc length: 3544 seconds
#
# Revision: 0
# Processed by: cddbd v1.4PL0 Copyright (c) Steve Scherf et al.
# Submitted via: CDex 1.40Release
#
DISCID=130dd615
DTITLE=Jimmie Revard - Hillbilly Swing CD #2
DYEAR=1900
DGENRE=Country
TTITLE0=Naughty Naughty (1936)
TTITLE1=Just Refined (1936)
TTITLE2=Playboy's Breakdown (1937)
TTITLE3=Tulsa Waltz (1937)
TTITLE4=I've Got Trouble In Mind (1937)
TTITLE5=Loose Your Blues And Laugh At Life (1937)
TTITLE6=You're Mean To Me (1937)
TTITLE7=My Little Girl (1937)
TTITLE8=It's My Turn Now (1937)
TTITLE9=Riding Down The Canyon (1937)
TTITLE10=That's My Gal (1937)
TTITLE11=Thinking (1937)
TTITLE12=Pickin' Cotton Blues (1937)
TTITLE13=Spanish Medley Of Waltzes (1937)
TTITLE14=I Want A Girl (1937)
TTITLE15=Daddy's Got The Deep Elm Blues (1937)
TTITLE16=Come Up And See Me Some Day (1937)
TTITLE17=Bound To Look Like A Monkey (1937)
TTITLE18=We Played A Game (1937)
TTITLE19=At The End Of The Lane (1937)
TTITLE20=We'll Ride The Tide Together (1937)
EXTD=ID3G: 2
EXTT0=
EXTT1=
EXTT2=
EXTT3=
EXTT4=
EXTT5=
EXTT6=
EXTT7=
EXTT8=
EXTT9=
EXTT10=
EXTT11=
EXTT12=
EXTT13=
EXTT14=
EXTT15=
EXTT16=
EXTT17=
EXTT18=
EXTT19=
EXTT20=
PLAYORDER=
